<svg width="18" height="18" viewBox="0 0 18 18" fill="none" xmlns="http://www.w3.org/2000/svg">
<path d="M8.38481 3.12951C8.36192 2.84151 8.57708 2.58717 8.86599 2.58843C9.96508 2.59324 11.0469 2.88794 12.0003 3.44706C13.1046 4.09465 13.9833 5.06572 14.5178 6.22896C15.0523 7.39221 15.2167 8.69152 14.9887 9.95123C14.7608 11.2109 14.1515 12.3703 13.2433 13.2725C12.3351 14.1746 11.1718 14.7762 9.91057 14.9958C8.64938 15.2153 7.35119 15.0423 6.19152 14.5001C5.03185 13.9579 4.06664 13.0727 3.4264 11.9642C2.87363 11.0071 2.58612 9.92334 2.58862 8.82424C2.58928 8.53533 2.84504 8.32186 3.13288 8.34667V8.34667C3.42073 8.37147 3.6312 8.62529 3.63541 8.91418C3.6483 9.7992 3.88686 10.6695 4.33241 11.4409C4.86547 12.3639 5.6691 13.1009 6.63465 13.5523C7.60019 14.0038 8.68106 14.1478 9.73113 13.965C10.7812 13.7822 11.7498 13.2814 12.506 12.5302C13.2621 11.779 13.7694 10.8138 13.9592 9.76493C14.149 8.71611 14.0121 7.6343 13.5671 6.66578C13.1221 5.69726 12.3904 4.88875 11.471 4.34957C10.7025 3.89891 9.83389 3.65457 8.94897 3.6358C8.66012 3.62968 8.40771 3.41752 8.38481 3.12951V3.12951Z" fill="white"/>
<path d="M5.89912 3.92345C5.75083 3.6755 5.8308 3.35212 6.09028 3.22507C6.33183 3.10681 6.58077 3.00426 6.83553 2.91806C7.10921 2.82546 7.39375 2.99868 7.46314 3.27914V3.27914C7.53253 3.5596 7.36021 3.8407 7.08813 3.93789C6.93228 3.99356 6.77917 4.05664 6.62933 4.1269C6.36774 4.24956 6.04742 4.17141 5.89912 3.92345V3.92345Z" fill="white"/>
<path d="M3.27479 7.48165C2.9941 7.4132 2.81994 7.12923 2.91161 6.85525C2.99696 6.6002 3.09868 6.35092 3.21613 6.10898C3.34231 5.84907 3.66542 5.76802 3.91387 5.91548C4.16232 6.06295 4.24154 6.38301 4.11976 6.645C4.05 6.79508 3.98743 6.9484 3.93228 7.10444C3.83601 7.37684 3.55548 7.5501 3.27479 7.48165Z" fill="white"/>
<path d="M4.22912 5.43987C3.99657 5.26842 3.94546 4.93924 4.13575 4.72185C4.31289 4.51947 4.50291 4.32874 4.70462 4.15085C4.92131 3.95975 5.25067 4.00964 5.42299 4.24155C5.5953 4.47345 5.54491 4.7993 5.33147 4.99402C5.2092 5.10556 5.09233 5.22287 4.98124 5.34555C4.78732 5.55971 4.46166 5.61132 4.22912 5.43987Z" fill="white"/>
<rect x="8.33861" y="6.33838" width="1" height="5" rx="0.5" fill="white"/>
<rect x="6.33861" y="9.33838" width="1" height="5" rx="0.5" transform="rotate(-90 6.33861 9.33838)" fill="white"/>
</svg>
