<svg width="512" height="512" viewBox="0 0 512 512" fill="none" xmlns="http://www.w3.org/2000/svg">
<g clip-path="url(#clip0_58_22)">
<path opacity="0.998" fill-rule="evenodd" clip-rule="evenodd" d="M451.5 159.5C324.086 159.004 196.752 159.504 69.5 161C65.9897 163.169 63.823 166.336 63 170.5C43.2089 255.542 23.2089 340.542 3 425.5C2.33333 428.5 2.33333 431.5 3 434.5C4.14487 437.432 4.9782 440.432 5.5 443.5C2.74605 440.232 0.746048 436.566 -0.5 432.5C-0.5 314.5 -0.5 196.5 -0.5 78.5C3.75503 66.4139 12.0884 58.5805 24.5 55C81.8333 54.3333 139.167 54.3333 196.5 55C204.854 59.0182 211.687 64.8515 217 72.5C226.508 86.1732 235.008 100.506 242.5 115.5C304.164 116.333 365.831 116.833 427.5 117C440 120.167 447.833 128 451 140.5C451.5 146.825 451.666 153.158 451.5 159.5Z" fill="#1C1C1E"/>
<path opacity="0.999" fill-rule="evenodd" clip-rule="evenodd" d="M451.5 159.5C465.171 159.333 478.837 159.5 492.5 160C502.456 163.121 508.79 169.621 511.5 179.5C511.5 183.833 511.5 188.167 511.5 192.5C492.163 272.994 472.997 353.66 454 434.5C449.859 443.975 443.026 450.808 433.5 455C295.876 456.66 158.209 456.993 20.5 456C13.7698 453.758 8.76975 449.592 5.5 443.5C4.9782 440.432 4.14487 437.432 3 434.5C2.33333 431.5 2.33333 428.5 3 425.5C23.2089 340.542 43.2089 255.542 63 170.5C63.823 166.336 65.9897 163.169 69.5 161C196.752 159.504 324.086 159.004 451.5 159.5Z" fill="#363636"/>
<path fill-rule="evenodd" clip-rule="evenodd" d="M251.5 212.5C268.476 211.053 279.309 218.386 284 234.5C284.667 263.167 284.667 291.833 284 320.5C279.002 338.756 267.169 345.922 248.5 342C238.362 338.199 232.196 331.033 230 320.5C229.333 291.833 229.333 263.167 230 234.5C233.324 223.344 240.49 216.01 251.5 212.5Z" fill="#6D7278"/>
<path fill-rule="evenodd" clip-rule="evenodd" d="M251.5 351.5C273.854 350.688 284.687 361.355 284 383.5C276.863 404.766 263.03 410.932 242.5 402C228.49 390.98 225.99 377.814 235 362.5C239.654 357.433 245.154 353.766 251.5 351.5Z" fill="#6D7278"/>
</g>
<defs>
<clipPath id="clip0_58_22">
<rect width="512" height="512" fill="white"/>
</clipPath>
</defs>
</svg>
