<svg width="19" height="17" viewBox="0 0 19 17" fill="none" xmlns="http://www.w3.org/2000/svg">
<path d="M0.75 3.06938C0.75406 3.04861 0.759233 3.02286 0.76551 2.99296C0.784323 2.90334 0.812545 2.77885 0.84982 2.64062C0.930154 2.3427 1.03175 2.06137 1.13275 1.90266C1.37032 1.52933 1.52933 1.37032 1.90266 1.13275C2.06137 1.03175 2.3427 0.930154 2.64062 0.84982C2.77885 0.812545 2.90334 0.784323 2.99296 0.76551C3.02286 0.759233 3.04861 0.75406 3.06938 0.75H15.9306C15.9514 0.75406 15.9771 0.759233 16.007 0.76551C16.0967 0.784323 16.2211 0.812545 16.3594 0.84982C16.6573 0.930154 16.9386 1.03175 17.0973 1.13275C17.4707 1.37032 17.6297 1.52933 17.8673 1.90266C17.9683 2.06137 18.0698 2.3427 18.1502 2.64062C18.1875 2.77885 18.2157 2.90334 18.2345 2.99296C18.2408 3.02286 18.2459 3.04861 18.25 3.06938V13V13.9306C18.2459 13.9514 18.2408 13.9771 18.2345 14.007C18.2157 14.0967 18.1875 14.2211 18.1502 14.3594C18.0698 14.6573 17.9683 14.9386 17.8673 15.0973C17.6297 15.4707 17.4707 15.6297 17.0973 15.8673C16.9386 15.9683 16.6573 16.0698 16.3594 16.1502C16.2211 16.1875 16.0967 16.2157 16.007 16.2345C15.9771 16.2408 15.9514 16.2459 15.9306 16.25H3.06938C3.04861 16.2459 3.02286 16.2408 2.99296 16.2345C2.90334 16.2157 2.77885 16.1875 2.64062 16.1502C2.3427 16.0698 2.06137 15.9683 1.90266 15.8673C1.52933 15.6297 1.37032 15.4707 1.13275 15.0973C1.03175 14.9386 0.930154 14.6573 0.84982 14.3594C0.812545 14.2211 0.784323 14.0967 0.76551 14.007C0.759233 13.9771 0.75406 13.9514 0.75 13.9306V9.5V3.06938Z" stroke="#191919" stroke-width="1.5"/>
<path d="M13 10.9999L13.0833 11.7453L13.209 11.7312L13.3226 11.677L13.3227 11.6769L13.3228 11.6769L13.3229 11.6768L13.3231 11.6768L13.3235 11.6766L13.3288 11.6741L13.3532 11.6628C13.3753 11.6526 13.4086 11.6374 13.4508 11.6188C13.5356 11.5814 13.6548 11.5307 13.7908 11.4781C14.0795 11.3664 14.3829 11.2703 14.593 11.244C14.9188 11.2033 15.0812 11.2033 15.407 11.244C15.8023 11.2935 16.0073 11.3836 16.4113 11.5614C16.4985 11.5998 16.5949 11.6422 16.7046 11.6892C16.8772 11.7632 17.3507 11.9993 17.8108 12.233C17.9684 12.3131 18.1199 12.3905 18.25 12.4573V13.4998V13.9305C18.2459 13.9513 18.2408 13.9771 18.2345 14.007C18.2157 14.0966 18.1875 14.2211 18.1502 14.3593C18.0698 14.6572 17.9683 14.9386 17.8673 15.0973C17.6297 15.4706 17.4707 15.6296 17.0973 15.8672C16.9386 15.9682 16.6573 16.0698 16.3594 16.1501C16.2211 16.1874 16.0967 16.2156 16.007 16.2344C15.9771 16.2407 15.9514 16.2459 15.9306 16.2499H3.06938C3.04861 16.2459 3.02286 16.2407 2.99296 16.2344C2.90334 16.2156 2.77885 16.1874 2.64062 16.1501C2.3427 16.0698 2.06137 15.9682 1.90266 15.8672C1.52933 15.6296 1.37032 15.4706 1.13275 15.0973C1.03175 14.9386 0.930154 14.6572 0.84982 14.3593C0.812545 14.2211 0.784323 14.0966 0.76551 14.007C0.759233 13.9771 0.75406 13.9513 0.75 13.9305V12.4998V9.22934C0.790935 9.17061 0.841784 9.09911 0.901553 9.01781C1.07979 8.77538 1.33368 8.45087 1.63724 8.11981C1.94255 7.78684 2.28602 7.46053 2.64185 7.20501C3.00285 6.94576 3.33648 6.78842 3.62556 6.73933C4.12086 6.65523 4.38067 6.65469 4.87328 6.73913C5.37745 6.82556 5.8752 7.10505 6.38642 7.57746C6.8993 8.05141 7.38905 8.68558 7.87596 9.41594C7.92944 9.49617 7.9817 9.57587 8.03337 9.65468C8.36124 10.1547 8.6657 10.6191 9.11116 10.9545C9.65115 11.3611 10.3415 11.5543 11.3678 11.7381C11.7416 11.805 12.1856 11.8012 12.4981 11.7879C12.6623 11.7809 12.8064 11.7705 12.9097 11.7618C12.9616 11.7574 13.0036 11.7534 13.0333 11.7505L13.0684 11.7469L13.0785 11.7458L13.0816 11.7455L13.0826 11.7454L13.083 11.7453L13.0832 11.7453C13.0832 11.7453 13.0833 11.7453 13 10.9999Z" stroke="#191919" stroke-width="1.5"/>
<path d="M13.5 3.75C14.4665 3.75 15.25 4.5335 15.25 5.5C15.25 6.4665 14.4665 7.25 13.5 7.25C12.5335 7.25 11.75 6.4665 11.75 5.5C11.75 4.5335 12.5335 3.75 13.5 3.75Z" stroke="#191919" stroke-width="1.5"/>
</svg>
