<?xml version="1.0" standalone="no"?>
<!DOCTYPE svg PUBLIC "-//W3C//DTD SVG 20010904//EN"
 "http://www.w3.org/TR/2001/REC-SVG-20010904/DTD/svg10.dtd">
<svg version="1.0" xmlns="http://www.w3.org/2000/svg"
 width="512.000000pt" height="512.000000pt" viewBox="0 0 512.000000 512.000000"
 preserveAspectRatio="xMidYMid meet">

<g transform="translate(0.000000,512.000000) scale(0.100000,-0.100000)"
fill="#000000" stroke="none">
<path d="M683 4785 c-175 -48 -317 -195 -353 -368 -7 -35 -10 -203 -8 -504 3
-438 4 -452 24 -479 39 -53 71 -69 134 -69 63 0 95 16 134 69 20 27 21 43 26
486 5 443 6 459 26 486 11 15 33 37 48 48 27 20 42 21 526 26 484 5 499 6 526
26 53 39 69 71 69 134 0 63 -16 95 -69 134 -27 21 -40 21 -529 23 -408 2 -512
-1 -554 -12z"/>
<path d="M3375 4786 c-118 -51 -124 -224 -11 -289 15 -9 151 -13 518 -17 482
-5 497 -6 524 -26 15 -11 37 -33 48 -48 20 -27 21 -43 26 -486 5 -443 6 -459
26 -486 39 -53 71 -69 134 -69 63 0 95 16 134 69 20 27 21 41 24 479 2 301 -1
469 -8 504 -37 175 -179 322 -357 368 -80 21 -1011 22 -1058 1z"/>
<path d="M415 2706 c-67 -29 -105 -106 -91 -181 9 -47 59 -102 104 -115 26 -8
689 -10 2154 -8 l2117 3 27 21 c53 39 69 71 69 134 0 63 -16 95 -69 134 l-27
21 -2127 2 c-1753 2 -2132 0 -2157 -11z"/>
<path d="M415 1746 c-37 -17 -70 -52 -84 -89 -7 -19 -11 -182 -11 -471 0 -479
2 -502 56 -608 59 -116 196 -220 327 -248 35 -7 215 -10 544 -8 479 3 492 4
519 24 53 39 69 71 69 134 0 63 -16 95 -69 134 -27 20 -42 21 -526 26 -484 5
-499 6 -526 26 -15 11 -37 33 -48 48 -20 27 -21 43 -26 486 -5 443 -6 459 -26
486 -11 15 -32 37 -46 47 -34 25 -113 32 -153 13z"/>
<path d="M4580 1749 c-29 -12 -67 -46 -83 -74 -9 -14 -14 -157 -17 -477 -5
-441 -6 -457 -26 -484 -11 -15 -33 -37 -48 -48 -27 -20 -42 -21 -526 -26 -484
-5 -499 -6 -526 -26 -53 -39 -69 -71 -69 -134 0 -63 16 -95 69 -134 27 -20 40
-21 519 -24 329 -2 509 1 544 8 179 38 336 194 373 375 7 33 10 212 8 502 -3
438 -4 452 -24 479 -11 15 -32 37 -46 47 -31 23 -111 32 -148 16z"/>
</g>
</svg>
