<svg width="26" height="26" viewBox="0 0 26 26" fill="none" xmlns="http://www.w3.org/2000/svg">
<path d="M25.8345 11.0282C25.8043 10.829 25.7206 10.6418 25.5923 10.4864C25.4641 10.3311 25.2961 10.2134 25.1062 10.1461L23.058 9.41777C22.938 9.07784 22.8009 8.74422 22.6471 8.41821L23.5792 6.45668C23.6655 6.27482 23.701 6.07298 23.6818 5.87259C23.6627 5.67219 23.5896 5.48072 23.4704 5.3185C22.6874 4.25251 21.7467 3.31199 20.6805 2.52931C20.5183 2.41006 20.3269 2.33703 20.1265 2.31801C19.9262 2.29899 19.7244 2.33468 19.5427 2.42128L17.5824 3.35265C17.2561 3.19888 16.9223 3.06182 16.5821 2.94202L15.8535 0.893511C15.7861 0.704055 15.6687 0.536379 15.5137 0.408282C15.3587 0.280185 15.1719 0.196448 14.9731 0.16596C13.5333 -0.0553199 12.4676 -0.0553199 11.0255 0.16596C10.8267 0.196509 10.64 0.280269 10.485 0.408358C10.33 0.536446 10.2126 0.704089 10.1451 0.893511L9.41654 2.94202C9.07642 3.06177 8.74265 3.19883 8.41653 3.35265L6.45545 2.42128C6.27381 2.33477 6.0721 2.29913 5.87181 2.31815C5.67152 2.33717 5.48013 2.41015 5.31802 2.52931C4.25181 3.31199 3.31104 4.25251 2.52808 5.3185C2.40884 5.48071 2.33576 5.67218 2.31661 5.87258C2.29745 6.07298 2.33294 6.27483 2.4193 6.45668L3.35142 8.41821C3.19765 8.74424 3.0605 9.07785 2.9405 9.41777L0.891982 10.1468C0.70232 10.2142 0.534474 10.3318 0.406287 10.487C0.278101 10.6422 0.194365 10.8292 0.163983 11.0282C0.0522238 11.7623 0 12.3883 0 13.0006C0 13.6121 0.0522238 14.2389 0.163983 14.973C0.194188 15.1722 0.277883 15.3595 0.406143 15.5148C0.534404 15.6702 0.702421 15.7878 0.89228 15.8552L2.9405 16.5835C3.06067 16.9236 3.19781 17.2574 3.35142 17.5838L2.4193 19.5445C2.33298 19.7263 2.29749 19.928 2.31658 20.1282C2.33568 20.3285 2.40867 20.5199 2.52778 20.682C3.31079 21.7482 4.25167 22.689 5.31802 23.4719C5.48007 23.5913 5.67153 23.6645 5.87192 23.6835C6.07232 23.7025 6.27412 23.6667 6.45575 23.58L8.41608 22.6486C8.74233 22.8024 9.0762 22.9394 9.41639 23.0592L10.145 25.1077C10.2124 25.2972 10.3298 25.4649 10.4848 25.5929C10.6398 25.721 10.8266 25.8048 11.0253 25.8353C11.7457 25.9463 12.3912 26 12.9991 26C13.607 26 14.2526 25.9463 14.9728 25.8353C15.1716 25.8048 15.3584 25.721 15.5134 25.5929C15.6684 25.4648 15.7858 25.2972 15.8532 25.1077L16.5818 23.0592C16.922 22.9394 17.2558 22.8024 17.5821 22.6486L19.5424 23.58C19.7241 23.6667 19.926 23.7024 20.1265 23.6834C20.3269 23.6644 20.5184 23.5913 20.6806 23.4719C21.7469 22.689 22.6876 21.7482 23.4705 20.682C23.5897 20.5199 23.6626 20.3285 23.6817 20.1282C23.7008 19.928 23.6653 19.7263 23.579 19.5445L22.6469 17.5838C22.8007 17.2575 22.9378 16.9236 23.0578 16.5835L25.106 15.8552C25.2959 15.7878 25.464 15.6702 25.5922 15.5148C25.7205 15.3595 25.8042 15.1722 25.8343 14.973C25.9461 14.2389 25.9983 13.6122 25.9983 13.0006C25.9983 12.389 25.9463 11.7622 25.8345 11.0282ZM23.7163 13.9841L21.7948 14.6674C21.6291 14.7262 21.4797 14.8233 21.3589 14.9509C21.238 15.0785 21.1491 15.233 21.0994 15.4016C20.9278 15.9818 20.7019 16.5309 20.4274 17.0344C20.3433 17.1888 20.297 17.3609 20.2921 17.5366C20.2873 17.7124 20.3241 17.8868 20.3995 18.0456L21.271 19.8786C20.8502 20.3845 20.3839 20.8507 19.8778 21.2714L18.0451 20.4009C17.8864 20.3252 17.7121 20.2882 17.5363 20.293C17.3606 20.2978 17.1885 20.3442 17.0342 20.4285C16.53 20.7027 15.9806 20.9283 15.3999 21.1002C15.2314 21.1499 15.0771 21.2388 14.9496 21.3596C14.8221 21.4803 14.725 21.6296 14.6662 21.7951L13.9825 23.7174C13.2847 23.7884 12.7138 23.7884 12.0159 23.7174L11.3323 21.7951C11.2734 21.6297 11.1762 21.4805 11.0487 21.3597C10.9212 21.239 10.767 21.15 10.5986 21.1002C10.0176 20.9283 9.46772 20.7027 8.96428 20.4285C8.81007 20.344 8.63795 20.2974 8.46216 20.2926C8.28638 20.2878 8.11197 20.3249 7.95338 20.4009L6.12062 21.2721C5.61489 20.8509 5.14857 20.3845 4.72744 19.8786L5.59898 18.0456C5.67441 17.8868 5.7112 17.7124 5.70635 17.5366C5.7015 17.3609 5.65515 17.1888 5.57108 17.0344C5.29728 16.5324 5.07122 15.9826 4.89903 15.4008C4.8492 15.2324 4.76022 15.0782 4.63937 14.9507C4.51853 14.8232 4.36924 14.7262 4.20371 14.6674L2.28218 13.9841C2.24592 13.6345 2.22846 13.3123 2.22846 13.0005C2.22846 12.6886 2.24592 12.3672 2.28218 12.0176L4.20416 11.3336C4.36962 11.2749 4.51883 11.1778 4.63959 11.0503C4.76036 10.9229 4.84926 10.7686 4.89903 10.6003C5.07093 10.02 5.29698 9.47014 5.57108 8.96596C5.65514 8.81169 5.7015 8.6397 5.70635 8.46408C5.7112 8.28846 5.67441 8.11418 5.59898 7.9555L4.72744 6.12245C5.14853 5.61659 5.61485 5.15017 6.12062 4.72897L7.95412 5.60021C8.27508 5.7548 8.65198 5.74241 8.96503 5.57261C9.46817 5.29836 10.0176 5.07275 10.5986 4.90086C10.767 4.85105 10.9212 4.76214 11.0487 4.64138C11.1762 4.52063 11.2734 4.37144 11.3323 4.20599L12.0159 2.28371C12.7072 2.21194 13.2792 2.21194 13.9825 2.28371L14.6662 4.20599C14.7251 4.37142 14.8223 4.5206 14.9498 4.64136C15.0773 4.76211 15.2315 4.85103 15.3999 4.90086C15.9809 5.07275 16.5308 5.29836 17.0342 5.57261C17.1884 5.65712 17.3605 5.7037 17.5363 5.7085C17.7121 5.7133 17.8865 5.67618 18.0451 5.60021L19.8778 4.72897C20.3836 5.15017 20.8499 5.61659 21.271 6.12245L20.3995 7.9555C20.3241 8.11418 20.2873 8.28846 20.2921 8.46408C20.297 8.6397 20.3433 8.81169 20.4274 8.96596C20.7024 9.47163 20.9283 10.0207 21.0994 10.5995C21.1491 10.7681 21.238 10.9226 21.3589 11.0502C21.4797 11.1778 21.6291 11.2749 21.7948 11.3336L23.7163 12.017C23.7526 12.3666 23.77 12.6888 23.77 13.0006C23.77 13.3125 23.7526 13.6345 23.7163 13.9841Z" fill="#0A86FF" fill-opacity="0.6"/>
<path d="M12.9992 7.58008C10.1549 7.58008 7.84082 9.89404 7.84082 12.7384C7.84082 15.5828 10.1548 17.8968 12.9992 17.8968C15.8436 17.8968 18.1575 15.5828 18.1575 12.7384C18.1575 9.89404 15.8434 7.58008 12.9992 7.58008ZM12.9992 15.6683C11.3837 15.6683 10.0693 14.3539 10.0693 12.7384C10.0693 11.1229 11.3837 9.80854 12.9992 9.80854C14.6147 9.80854 15.9291 11.1229 15.9291 12.7384C15.9291 14.3539 14.6147 15.6683 12.9992 15.6683Z" fill="#0A86FF" fill-opacity="0.6"/>
</svg>
