<svg width="512" height="512" viewBox="0 0 512 512" fill="none" xmlns="http://www.w3.org/2000/svg">
<g clip-path="url(#clip0_233_1201)">
<path d="M106.667 256C106.667 226.545 82.7885 202.667 53.3333 202.667C23.8781 202.667 -3.6188e-06 226.545 -2.33127e-06 256C-1.04375e-06 285.455 23.8781 309.333 53.3333 309.333C82.7885 309.333 106.667 285.455 106.667 256Z" fill="black"/>
<path d="M309.333 256C309.333 226.545 285.455 202.667 256 202.667C226.545 202.667 202.667 226.545 202.667 256C202.667 285.455 226.545 309.333 256 309.333C285.455 309.333 309.333 285.455 309.333 256Z" fill="black"/>
<path d="M512 256C512 226.545 488.122 202.667 458.667 202.667C429.212 202.667 405.333 226.545 405.333 256C405.333 285.455 429.212 309.333 458.667 309.333C488.122 309.333 512 285.455 512 256Z" fill="black"/>
</g>
<defs>
<clipPath id="clip0_233_1201">
<rect width="512" height="512" fill="white" transform="translate(0 512) rotate(-90)"/>
</clipPath>
</defs>
</svg>
