<?xml version="1.0" standalone="no"?>
<!DOCTYPE svg PUBLIC "-//W3C//DTD SVG 20010904//EN"
 "http://www.w3.org/TR/2001/REC-SVG-20010904/DTD/svg10.dtd">
<svg version="1.0" xmlns="http://www.w3.org/2000/svg"
 width="559.000000pt" height="559.000000pt" viewBox="0 0 559.000000 559.000000"
 preserveAspectRatio="xMidYMid meet">

<g transform="translate(0.000000,559.000000) scale(0.100000,-0.100000)"
fill="#000000" stroke="none">
<path d="M2825 4824 c-121 -58 -332 -157 -470 -221 -137 -64 -258 -123 -269
-132 -10 -9 -41 -54 -68 -101 -28 -47 -51 -86 -52 -87 0 -1 -116 -27 -256 -58
-315 -71 -410 -106 -555 -206 -138 -95 -264 -241 -340 -394 -170 -345 -146
-733 67 -1057 l50 -78 -17 -42 c-34 -84 -66 -194 -72 -249 l-6 -56 104 -75
c57 -41 152 -108 211 -149 303 -209 583 -404 698 -484 114 -80 149 -112 308
-285 348 -378 444 -462 617 -540 227 -102 530 -119 763 -44 179 59 345 170
469 315 71 82 79 89 122 94 123 17 249 49 314 82 18 9 40 39 67 93 109 216
113 240 181 1095 10 138 26 320 34 405 8 85 15 180 15 212 0 42 19 118 75 297
61 199 77 262 86 356 27 263 -44 522 -198 730 -169 227 -416 375 -692 415 -51
8 -135 11 -214 7 l-130 -5 -66 54 c-124 102 -401 215 -520 214 -24 -1 -106
-34 -256 -106z m-833 -1491 c25 -22 24 -79 -1 -93 -11 -5 -81 -10 -155 -10
l-136 0 0 -388 c0 -433 0 -432 -65 -432 -67 0 -65 -12 -65 426 l0 394 -142 0
c-118 0 -145 3 -160 17 -22 20 -23 61 -1 85 15 17 40 18 361 18 307 0 347 -2
364 -17z m383 -280 c37 -12 66 -32 111 -77 87 -88 96 -118 102 -341 4 -167 2
-182 -15 -204 -14 -17 -29 -24 -54 -23 -39 1 -59 23 -59 64 l0 28 -46 -35
c-158 -121 -382 -61 -467 123 -31 68 -31 227 -1 293 74 159 248 229 429 172z
m827 6 c91 -23 182 -117 213 -222 38 -129 -3 -283 -97 -362 -109 -92 -269 -97
-382 -10 l-46 35 0 -168 c0 -92 -4 -172 -8 -179 -12 -19 -55 -31 -79 -22 -43
16 -45 33 -41 372 l3 322 27 57 c72 154 230 222 410 177z m881 -17 c73 -32
138 -102 167 -180 31 -81 25 -215 -12 -287 -89 -170 -294 -225 -448 -119 l-49
33 -3 -164 c-3 -182 -8 -195 -67 -197 -64 -2 -66 3 -69 300 -4 306 5 401 45
474 84 155 268 214 436 140z"/>
<path d="M2184 2947 c-89 -35 -138 -110 -138 -212 1 -135 96 -224 230 -213
107 9 184 100 184 217 -1 153 -142 259 -276 208z"/>
<path d="M3015 2941 c-49 -22 -99 -77 -115 -126 -7 -20 -10 -66 -8 -101 7
-116 91 -194 207 -194 70 0 124 29 165 88 26 37 31 55 34 116 3 55 0 83 -13
109 -50 106 -170 154 -270 108z"/>
<path d="M3867 2946 c-53 -19 -85 -51 -113 -111 -41 -86 -28 -178 34 -247 45
-50 85 -68 152 -68 68 0 109 19 152 69 117 137 39 352 -133 367 -33 3 -69 -1
-92 -10z"/>
<path d="M463 2980 c0 -30 2 -43 4 -27 2 15 2 39 0 55 -2 15 -4 2 -4 -28z"/>
</g>
</svg>
